<svg xmlns="http://www.w3.org/2000/svg" width="24" height="24" viewBox="0 0 24 24">
  <g id="Group_47446" data-name="Group 47446">
    <path id="Path_34848" data-name="Path 34848" d="M8.071,12.005c0-.445-.007-.889,0-1.334a1.867,1.867,0,0,1,1.957-1.94c1.111-.015,2.224-.028,3.334.007.517.017.764-.109.69-.666a4.5,4.5,0,0,1,0-.787,1.816,1.816,0,0,1,1.189-1.744,1.794,1.794,0,0,1,2.058.435c1.554,1.561,3.124,3.106,4.684,4.661a1.737,1.737,0,0,1,.03,2.71c-1.585,1.588-3.183,3.162-4.778,4.738a1.727,1.727,0,0,1-1.836.459,1.844,1.844,0,0,1-1.3-1.462,3.694,3.694,0,0,1-.047-.723c-.023-1.238.179-1.063-1.108-1.075-.949-.009-1.9.01-2.849-.005a1.888,1.888,0,0,1-2.019-2.061c0-.405,0-.809,0-1.213m7.851,4.525L20.378,12.1c-1.465-1.471-2.957-2.968-4.421-4.439.021-.054-.018,0-.019.055-.009.545-.013,1.09-.016,1.634,0,1.017-.263,1.273-1.3,1.274-1.311,0-2.623,0-3.934,0-.233,0-.465.026-.742.043,0,.686.038,1.311-.011,1.93-.047.594.112.814.755.787,1.309-.054,2.623-.022,3.934-.014,1.031.006,1.294.273,1.3,1.284,0,.6,0,1.195,0,1.869" fill="currentColor"/>
    <path id="Path_34849" data-name="Path 34849" d="M1.356,11.974c0-1.818,0-3.635,0-5.454a3.625,3.625,0,0,1,3.518-3.8c1.107-.07,2.223-.043,3.332,0,.881.034,1.348.708.937,1.364a1.333,1.333,0,0,1-.926.5c-.965.066-1.938.022-2.908.026A1.81,1.81,0,0,0,3.271,6.669q0,5.332,0,10.666c0,1.411.663,2.061,2.094,2.064.99,0,1.98-.012,2.969.008a.922.922,0,0,1,.951.906.908.908,0,0,1-.833.96,27.665,27.665,0,0,1-3.991-.049,3.543,3.543,0,0,1-3.1-3.674c-.01-1.859,0-3.717,0-5.576" fill="currentColor"/>
  </g>
</svg>
