<svg id="Group_47825" data-name="Group 47825" xmlns="http://www.w3.org/2000/svg" xmlns:xlink="http://www.w3.org/1999/xlink" width="24" height="24" viewBox="0 0 24 24">
  <defs>
    <clipPath id="clip-path">
      <rect id="Rectangle_8276" data-name="Rectangle 8276" width="24" height="24" fill="#fff"/>
    </clipPath>
  </defs>
  <g id="Group_47804" data-name="Group 47804" clip-path="url(#clip-path)">
    <path id="Path_35275" data-name="Path 35275" d="M19.179,10.5c-1.244,1.237-2.475,2.458-3.7,3.683q-3.055,3.049-6.106,6.107a5.044,5.044,0,0,1-2.22,1.324q-2.441.7-4.879,1.42a.993.993,0,0,1-1.062-.252.964.964,0,0,1-.236-1.029c.5-1.712.961-3.436,1.509-5.132a3.946,3.946,0,0,1,.889-1.5c3.3-3.365,6.641-6.7,9.964-10.041.164-.165.285-.218.474-.027q2.607,2.625,5.223,5.242a1.842,1.842,0,0,1,.147.208" fill="currentColor"/>
    <path id="Path_35276" data-name="Path 35276" d="M14.477,3.86c.948-.882,1.755-1.757,2.688-2.465a2.483,2.483,0,0,1,3.147.159,20.408,20.408,0,0,1,2.2,2.255,2.613,2.613,0,0,1-.029,3.285c-.665.78-1.427,1.478-2.143,2.215-.207.213-.314.021-.434-.1q-2.264-2.262-4.526-4.524c-.263-.262-.549-.5-.907-.826" fill="currentColor"/>
  </g>
</svg>
