<svg id="Group_48696" data-name="Group 48696" xmlns="http://www.w3.org/2000/svg" xmlns:xlink="http://www.w3.org/1999/xlink" width="24" height="24" viewBox="0 0 24 24">
  <defs>
    <clipPath id="clip-path">
      <rect id="Rectangle_8471" data-name="Rectangle 8471" width="24" height="24" fill="#fff"/>
    </clipPath>
  </defs>
  <g id="Group_48692" data-name="Group 48692" clip-path="url(#clip-path)">
    <path id="Path_35442" data-name="Path 35442" d="M20.231,6.529C20.152,8,20.085,9.38,20,10.761c-.129,2.126-.271,4.251-.4,6.376-.084,1.328-.146,2.658-.251,3.984a2,2,0,0,1-2.053,1.888q-5.281.006-10.562,0a1.987,1.987,0,0,1-2.06-1.932Q4.26,14.389,3.853,7.7c-.071-1.169-.068-1.169,1.123-1.169H20.231" fill="currentColor"/>
    <path id="Path_35443" data-name="Path 35443" d="M12.012,5.048c-2.719,0-5.439.009-8.158,0a1.32,1.32,0,0,1-1.361-1.9,1.265,1.265,0,0,1,1.286-.764c1.179-.006,2.359-.015,3.537,0a.709.709,0,0,0,.793-.47A1.5,1.5,0,0,1,9.661.988C11.24,1,12.818,1,14.4.991a1.411,1.411,0,0,1,1.483.927c.149.395.409.474.794.468,1.2-.02,2.4-.025,3.594,0a1.3,1.3,0,0,1,1.269,1.851,1.248,1.248,0,0,1-1.309.81c-1.1,0-2.206,0-3.309,0H12.012" fill="currentColor"/>
  </g>
</svg>
